<?xml version="1.0" encoding="utf-8"?>
<!-- Generator: Adobe Illustrator 19.2.1, SVG Export Plug-In . SVG Version: 6.00 Build 0)  -->
<svg version="1.1" id="layer" xmlns="http://www.w3.org/2000/svg" xmlns:xlink="http://www.w3.org/1999/xlink" x="0px" y="0px"
	 viewBox="0 0 652 652" style="enable-background:new 0 0 652 652;" xml:space="preserve">
<style type="text/css">
	.st0{fill:#1E4B9B;}
</style>
<path class="st0" d="M482.3,254.3l3.3-1.2c-3-5.4-4.9-11.7-4.9-17.6c0-20.5,12.7-25.4,31.5-25.4c18.9,0,31.5,5.8,31.5,26.3
	c0,4.9-1.1,8.9-3.3,13.7H561v12.4h-78.7V254.3z M512.2,222.8c-10.8,0-20.1,1.8-20.1,13.7c0,6,1.2,10.2,2.9,13.7h34.6
	c0.7-1.4,2.7-6.9,2.7-13.7C532.3,224.6,523,222.8,512.2,222.8 M473.2,539.5v-22.6h-11.5v57.9h11.5v-22.5h68.8v-12.8H473.2z
	 M541.9,468.3l0.2-12.4H500c-12.1,0-19.3,6-19.3,21.1c0,4.8,1.7,11.5,3.8,15.9h-22.9v12.4h80.4v-12.4H495c-1.5-3.3-2.9-8.3-2.9-14.4
	c0-5.6,1.8-10.1,7.5-10.1H541.9z M501.9,341.8c-21.8,0-41.9-6.4-41.9-32.9c0-27.3,20-32.8,41.9-32.8c21.8,0,41.8,6.3,41.8,32.8
	C543.7,336.2,523.6,341.8,501.9,341.8 M501.9,328.5c16.7,0,30.2-2.8,30.2-19.6c0-16.9-13.5-19.4-30.2-19.4
	c-16.8,0-30.2,2.7-30.2,19.5C471.6,325.8,485.1,328.5,501.9,328.5 M492.1,107c0-1.4-0.2-9.8,7.7-9.8h42.4V84.6H500
	c-12.1,0-19.2,6.2-19.2,21.1c0,5.8,1.7,12.9,4.9,18.2l-3.3,1.2v8.3h59.8V121H495C493.4,117.8,492.1,113,492.1,107 M517.5,186.2
	c10.5-0.9,14.6-5.5,14.6-17.6c0-5.6-1.1-11.3-3.4-18.4h10.9c3,7.4,4,14.6,4,21.4c0,20.7-12.6,27.3-31.5,27.3
	c-18.5,0-31.5-7.3-31.5-27.3c0-21.2,15.4-24.3,32-24.4h4.8V186.2z M507.3,186.2V160c-8,0-16.3,2-16.3,12.1
	C491,182.7,497.8,185.6,507.3,186.2 M517.5,431.5c10.4-0.9,14.6-5.6,14.6-17.6c0-5.6-1.1-11.3-3.3-18.3h10.9c3,7.4,4,14.6,4,21.4
	c0,20.7-12.6,27.3-31.5,27.3c-18.5,0-31.5-7.3-31.5-27.3c0-21.2,15.4-24.4,32-24.4h4.8V431.5z M507.8,431.3v-26.1
	c-8,0-16.3,2.1-16.3,12.1C491.5,427.8,498.3,430.8,507.8,431.3 M591.1,525.4h51c18.1,0,19.4,10.8,19.4,17.5
	c0,6.7-1.4,17.5-19.4,17.5h-50.9v12.3l52.5,0c25.8,0,29.9-18.6,29.9-29.9c0-11.3-4-29.9-29.9-29.9l-52.5,0V525.4z M594.5,427.2
	c-4.6,0-8.2,3.6-8.2,8.2c0,4.5,3.6,8.2,8.2,8.2c4.5,0,8.1-3.6,8.1-8.2C602.6,430.8,599,427.2,594.5,427.2 M660.2,441.5
	c9.5,0,13.1-4.9,13.1-12.1c0-2.9-0.1-4.3-0.2-5.7h-10.9v2.1c0,3.3-1,3.4-3.1,3.4l-47.2,0v12.3H660.2 M660.2,202.1
	c9.5,0,13.1-4.9,13.1-12.1c0-2.9-0.1-4.4-0.3-5.7h-10.8l0,2.1c0,3.3-1,3.4-3.1,3.4l-47.2,0v12.4H660.2 M658.5,389.4l-46.6,15v13.5
	l61.4-23.5v-10.1L612,360.9l0,13.4L658.5,389.4z M647.2,344.4c10.4-0.9,14.6-5.4,14.6-17.2c0-5.5-1-11-3.3-17.9h10.9
	c3,7.3,4,14.2,4,20.9c0,20.2-12.6,26.7-31.4,26.7c-18.5,0-31.5-7.1-31.5-26.7c0-20.7,15.4-23.8,32-23.8l4.8,0V344.4z M637,318.7
	c-8,0-16.3,2-16.3,11.9c0,10.5,6.8,13.4,16.3,13.9V318.7z M611,263.1c-0.5,2.2-0.5,5.4-0.5,8c0,4.3,1.9,11.1,4.7,14.8l-3.3,1.2v8.3
	h60v-12.3h-47.3c-1.5-3.1-2.5-7.1-2.5-11.7c0-3.1,0.1-5.8,0.6-8.3L611,263.1z M653.7,212.1c-10.6,0-16.6,4-18.3,21.3
	c-0.8,9.1-2.6,10.8-6.1,10.8c-4.3,0-7.7-1.9-7.7-11.1c0-7,1.6-12.5,3.5-18.3l-11.3,0c-2.7,6.2-3.5,12.7-3.5,18.2
	c0,17.2,10,22.8,19,22.8c8.9,0,15.5-3.6,17-21.2c0.8-9.3,3.5-10.7,7.5-10.7c4,0,8.1,2.8,8.1,12.4c0,7.5-1.9,14.2-3.6,18.9l11.6,0
	c1.8-4.4,3.3-13.1,3.3-18.8C673.3,218.1,663.3,212.1,653.7,212.1 M661.6,140.1c0.2,1.1,0.4,5.2,0.4,7.6c0,6.2-1.9,8.9-6.9,8.9h-32.6
	v-16.5H612l0,16.5h-16.8l1.7,12.1H612l0.6,10.4h9.9v-10.4l34.1,0c11.7,0,16.7-7.6,16.7-17.3c0-4.6-0.2-8.6-0.8-11.4H661.6z M612,77
	v12.8l43.2,14.9l-43.2,13v13.7l57-20.8l21.7,8.4v-11.6L612,77z M621.8,474.7c0-1.4-0.2-9.6,7.6-9.6h42.4v-12.2h-42.1
	c-12.1,0-19.3,6-19.3,20.6c0,5.7,1.7,12.6,4.9,17.8l-3.3,1.2v8.1h59.8v-12.1h-47.1C623.2,485.2,621.8,480.6,621.8,474.7
	 M594.5,186.9c-4.6,0-8.2,3.6-8.2,8.2c0,4.6,3.6,8.2,8.2,8.2c4.5,0,8.1-3.6,8.1-8.2C602.6,190.5,599,186.9,594.5,186.9 M145.5,324.7
	C94,338.1,41.7,307.9,28.7,257.2c-13.1-50.7,18-102.6,69.4-116c51.4-13.4,103.7,16.9,116.8,67.5S196.8,311.4,145.5,324.7
	 M359.3,80.4h-372c-11.6,0-25.2,11.4-25.2,23.2v270.6c0,118.9,94.2,202.8,210.4,202.8c116.2,0,210.5-83.9,210.5-202.8V104.8
	C382.9,93,370.9,80.4,359.3,80.4"/>
</svg>
